<?xml version="1.0" encoding="utf-8"?>
<!-- Generator: Adobe Illustrator 16.0.0, SVG Export Plug-In . SVG Version: 6.00 Build 0)  -->
<!DOCTYPE svg PUBLIC "-//W3C//DTD SVG 1.1//EN" "http://www.w3.org/Graphics/SVG/1.1/DTD/svg11.dtd">
<svg version="1.1" id="Layer_1" xmlns="http://www.w3.org/2000/svg" xmlns:xlink="http://www.w3.org/1999/xlink" x="0px" y="0px"
	 width="171.667px" height="26.5px" viewBox="0 0 171.667 26.5" enable-background="new 0 0 171.667 26.5" xml:space="preserve">
<g>
	<path fill="#555759" d="M47.35,22.162l-4.379-6.773c-0.441-0.009-1.057-0.033-1.85-0.082v6.855H38.1V5.757
		c0.162,0,0.793-0.028,1.893-0.085c1.098-0.053,1.98-0.084,2.652-0.084c4.166,0,6.248,1.614,6.248,4.84
		c0,0.967-0.287,1.855-0.861,2.653c-0.576,0.8-1.301,1.363-2.172,1.69l4.846,7.391H47.35z M41.122,8.287v4.557
		c0.539,0.048,0.949,0.067,1.232,0.067c1.215,0,2.105-0.171,2.67-0.515c0.564-0.343,0.846-1.01,0.846-2.004
		c0-0.804-0.303-1.368-0.906-1.691c-0.605-0.32-1.559-0.48-2.854-0.48C41.795,8.221,41.467,8.244,41.122,8.287"/>
	<path fill="#555759" d="M62.643,17.022h-8.566c0.053,0.955,0.381,1.697,0.988,2.228c0.604,0.531,1.418,0.795,2.439,0.795
		c1.277,0,2.248-0.332,2.912-0.996l1.086,2.141c-0.986,0.797-2.455,1.195-4.412,1.195c-1.828,0-3.277-0.535-4.34-1.606
		c-1.064-1.071-1.596-2.564-1.596-4.483c0-1.89,0.584-3.42,1.754-4.592c1.168-1.172,2.57-1.758,4.205-1.758
		c1.738,0,3.133,0.52,4.186,1.557c1.055,1.039,1.58,2.359,1.58,3.964C62.879,15.809,62.799,16.327,62.643,17.022 M54.178,14.917
		h5.891c-0.193-1.756-1.166-2.632-2.912-2.632C55.559,12.285,54.567,13.161,54.178,14.917"/>
	<path fill="#555759" d="M78.645,22.162v-7.516c0-1.573-0.707-2.361-2.117-2.361c-0.418,0-0.824,0.125-1.211,0.369
		c-0.387,0.247-0.66,0.529-0.816,0.85v8.658H71.7v-7.951c0-0.588-0.182-1.057-0.549-1.404c-0.365-0.348-0.881-0.521-1.541-0.521
		c-0.352,0-0.734,0.132-1.15,0.393s-0.715,0.548-0.9,0.865v8.619h-2.803V10.168h1.928l0.57,1.054
		c0.777-0.851,1.781-1.276,3.014-1.276c1.59,0,2.789,0.433,3.592,1.297c0.354-0.395,0.842-0.709,1.469-0.943
		c0.627-0.236,1.256-0.354,1.881-0.354c1.338,0,2.377,0.384,3.119,1.146c0.744,0.767,1.113,1.816,1.113,3.154v7.916H78.645z"/>
	<path fill="#555759" d="M83.518,16.137c0-1.826,0.527-3.318,1.586-4.465c1.055-1.154,2.449-1.727,4.18-1.727
		c1.824,0,3.236,0.553,4.244,1.658c1.008,1.104,1.514,2.614,1.514,4.533c0,1.912-0.512,3.432-1.539,4.559s-2.434,1.689-4.219,1.689
		c-1.82,0-3.236-0.568-4.248-1.707S83.518,18.025,83.518,16.137 M86.43,16.137c0,2.644,0.951,3.964,2.854,3.964
		c0.875,0,1.568-0.343,2.078-1.028c0.512-0.688,0.77-1.666,0.77-2.936c0-2.606-0.951-3.906-2.848-3.906
		c-0.871,0-1.566,0.344-2.082,1.027C86.688,13.947,86.43,14.906,86.43,16.137"/>
	<path fill="#555759" d="M97.706,12.42h-1.389v-2.252h1.389v-2.44l2.799-1.03v3.471h3.293v2.252h-3.293v5.25
		c0,0.862,0.137,1.467,0.404,1.822c0.266,0.354,0.738,0.529,1.41,0.529s1.299-0.182,1.881-0.549v2.576
		c-0.648,0.225-1.572,0.336-2.777,0.336c-1.193,0-2.111-0.336-2.754-1.014c-0.641-0.676-0.963-1.634-0.963-2.881V12.42z"/>
	<path fill="#555759" d="M117.012,17.022h-8.566c0.051,0.955,0.381,1.697,0.986,2.228c0.604,0.531,1.418,0.795,2.439,0.795
		c1.279,0,2.248-0.332,2.914-0.996l1.084,2.141c-0.984,0.797-2.455,1.195-4.41,1.195c-1.828,0-3.277-0.535-4.34-1.606
		c-1.064-1.071-1.596-2.564-1.596-4.483c0-1.89,0.584-3.42,1.75-4.592c1.17-1.172,2.572-1.758,4.209-1.758
		c1.736,0,3.133,0.52,4.184,1.557c1.055,1.039,1.582,2.359,1.582,3.964C117.249,15.809,117.168,16.327,117.012,17.022
		 M108.547,14.917h5.889c-0.193-1.756-1.164-2.632-2.91-2.632C109.928,12.285,108.936,13.161,108.547,14.917"/>
	<polygon fill="#555759" points="125.776,22.386 124.174,22.386 118.04,5.757 121.241,5.757 125.038,16.845 129.045,5.757 
		132.182,5.757 	"/>
	<path fill="#555759" d="M134.5,22.163v-9.698h-1.535v-2.297h4.367v11.995H134.5z M135.942,5.521c0.449,0,0.832,0.16,1.15,0.477
		c0.316,0.318,0.475,0.699,0.475,1.147c0,0.446-0.158,0.83-0.475,1.148c-0.318,0.317-0.701,0.474-1.15,0.474
		c-0.445,0-0.828-0.156-1.146-0.474c-0.318-0.318-0.475-0.702-0.475-1.148c0-0.448,0.156-0.829,0.475-1.147
		C135.114,5.682,135.497,5.521,135.942,5.521"/>
	<path fill="#555759" d="M151.295,17.022h-8.564c0.049,0.955,0.379,1.697,0.982,2.228c0.605,0.531,1.42,0.795,2.441,0.795
		c1.277,0,2.246-0.332,2.912-0.996l1.086,2.141c-0.984,0.797-2.455,1.195-4.41,1.195c-1.83,0-3.275-0.535-4.34-1.606
		s-1.598-2.564-1.598-4.483c0-1.89,0.586-3.42,1.752-4.592c1.17-1.172,2.572-1.758,4.207-1.758c1.74,0,3.135,0.52,4.188,1.557
		c1.053,1.039,1.58,2.359,1.58,3.964C151.532,15.809,151.454,16.327,151.295,17.022 M142.831,14.917h5.891
		c-0.195-1.756-1.166-2.632-2.914-2.632C144.209,12.285,143.219,13.161,142.831,14.917"/>
	<polygon fill="#555759" points="164.893,22.386 163.875,22.386 160.583,15.017 157.303,22.386 156.272,22.386 151.749,10.168 
		154.696,10.168 157.102,17.324 160.034,10.168 161.043,10.168 164.079,17.37 166.676,10.168 169.43,10.168 	"/>
	<path fill="#00A4E4" d="M27.698,9.408c0-0.781,0.273-1.445,0.82-1.994c0.547-0.547,1.213-0.82,1.996-0.82
		c0.781,0,1.445,0.273,1.996,0.82c0.547,0.549,0.82,1.213,0.82,1.994c0,0.785-0.273,1.451-0.82,2.007
		c-0.551,0.55-1.215,0.83-1.996,0.83c-0.783,0-1.449-0.28-1.996-0.83C27.971,10.859,27.698,10.193,27.698,9.408"/>
	<path fill="#00A4E4" d="M27.698,19.328c0-0.785,0.273-1.449,0.82-1.996c0.547-0.55,1.213-0.823,1.996-0.823
		c0.781,0,1.445,0.273,1.996,0.823c0.547,0.547,0.82,1.211,0.82,1.996c0,0.781-0.273,1.449-0.82,2.004
		c-0.551,0.551-1.215,0.827-1.996,0.827c-0.783,0-1.449-0.276-1.996-0.827C27.971,20.777,27.698,20.109,27.698,19.328"/>
	<path fill="#EA1D25" d="M17.829,15.599l4.17-3.509c0.453-0.43,0.738-1.036,0.738-1.709c0-1.054-0.691-1.949-1.645-2.248
		l-0.014-0.004l-0.006-0.006l-15.4-5.138c-0.299-0.1-0.617-0.159-0.951-0.149c-1.512,0.02-2.729,1.221-2.787,2.711
		c-0.004,0.053,0,0.217,0,0.248v15.416v0.013v0.015c0.006,0.361,0.299,0.652,0.66,0.652c0.156,0,0.299-0.057,0.408-0.147
		l0.004,0.003l3.82-3.01V8.287l9.32,3.102l-4.51,3.553l6.986,9.55h5.678L17.829,15.599z"/>
</g>
</svg>
